<svg xmlns="http://www.w3.org/2000/svg" viewBox="0 0 64 64" width="64" height="64">
  <defs>
    <linearGradient id="g" x1="0" y1="0" x2="1" y2="1">
      <stop offset="0" stop-color="#38bdf8"/>
      <stop offset="1" stop-color="#2563eb"/>
    </linearGradient>
  </defs>
  <rect x="4" y="4" width="56" height="56" rx="14" fill="url(#g)"/>
  <path d="M32 14a4 4 0 0 0-4 4v11l-8.5 8.5A3 3 0 0 0 21.6 43h20.8a3 3 0 0 0 2.1-5.5L36 29V18a4 4 0 0 0-4-4z" fill="#fff"/>
  <path d="M28 47a4 4 0 0 0 8 0" stroke="#fff" stroke-width="3.2" fill="none" stroke-linecap="round"/>
  <circle cx="46" cy="18" r="5" fill="#f59e0b" stroke="#0f172a" stroke-width="2"/>
</svg>
